<?xml version="1.0" encoding="UTF-8" standalone="no"?>
<!-- Created with Inkscape (http://www.inkscape.org/) -->

<svg
   xmlns:dc="http://purl.org/dc/elements/1.1/"
   xmlns:cc="http://creativecommons.org/ns#"
   xmlns:rdf="http://www.w3.org/1999/02/22-rdf-syntax-ns#"
   xmlns:svg="http://www.w3.org/2000/svg"
   xmlns="http://www.w3.org/2000/svg"
   xmlns:sodipodi="http://sodipodi.sourceforge.net/DTD/sodipodi-0.dtd"
   xmlns:inkscape="http://www.inkscape.org/namespaces/inkscape"
   id="svg2985"
   version="1.1"
   inkscape:version="0.91 r13725"
   width="283.4625"
   height="177.1625"
   xml:space="preserve"
   sodipodi:docname="ticket.svg"><metadata
     id="metadata2991"><rdf:RDF><cc:Work
         rdf:about=""><dc:format>image/svg+xml</dc:format><dc:type
           rdf:resource="http://purl.org/dc/dcmitype/StillImage" /><dc:title /></cc:Work></rdf:RDF></metadata><defs
     id="defs2989"><clipPath
       clipPathUnits="userSpaceOnUse"
       id="clipPath3015"><path
         d="m 0,141.73 226.77,0 L 226.77,0 0,0 0,141.73 z"
         id="path3017" /></clipPath></defs><sodipodi:namedview
     pagecolor="#ffffff"
     bordercolor="#666666"
     borderopacity="1"
     objecttolerance="10"
     gridtolerance="10"
     guidetolerance="10"
     inkscape:pageopacity="0"
     inkscape:pageshadow="2"
     inkscape:window-width="1366"
     inkscape:window-height="721"
     id="namedview2987"
     showgrid="false"
     inkscape:zoom="1.8838885"
     inkscape:cx="104.96211"
     inkscape:cy="86.450039"
     inkscape:window-x="-4"
     inkscape:window-y="-4"
     inkscape:window-maximized="1"
     inkscape:current-layer="g2993"
     showguides="true"
     inkscape:guide-bbox="true" /><g
     id="g2993"
     inkscape:groupmode="layer"
     inkscape:label="VorlageBadges"
     transform="matrix(1.25,0,0,-1.25,0,177.1625)"><text
       transform="scale(1,-1)"
       id="text2995"
       x="11.06169"
       y="-106.37839"
       style="font-style:normal;font-variant:normal;font-weight:300;font-stretch:normal;font-family:'VAG Rounded Std';-inkscape-font-specification:'VAG Rounded Std Light'"><tspan
         style="font-style:normal;font-variant:normal;font-weight:900;font-stretch:normal;font-size:30px;font-family:'VAG Rounded Std';-inkscape-font-specification:'VAG Rounded Std Heavy';writing-mode:lr-tb;fill:#231f20;fill-opacity:1;fill-rule:nonzero;stroke:none"
         sodipodi:role="line"
         id="tspan2997"
         x="11.06169"
         y="-106.37839">{{ .firstname }}</tspan></text>
<text
       transform="scale(1,-1)"
       id="text2999"
       x="11.346694"
       y="-87.611786"
       style="font-style:normal;font-variant:normal;font-weight:300;font-stretch:normal;font-family:'VAG Rounded Std';-inkscape-font-specification:'VAG Rounded Std Light'"><tspan
         style="font-style:normal;font-variant:normal;font-weight:300;font-stretch:normal;font-size:15px;font-family:'VAG Rounded Std';-inkscape-font-specification:'VAG Rounded Std Light';writing-mode:lr-tb;fill:#231f20;fill-opacity:1;fill-rule:nonzero;stroke:none"
         sodipodi:role="line"
         id="tspan3001"
         x="11.346694"
         y="-87.611786">{{ .lastname }}</tspan></text>
<g
       id="g3072"
       style="font-style:normal;font-weight:normal;font-size:32px;line-height:125%;font-family:Sans;letter-spacing:0px;word-spacing:0px;fill:#000000;fill-opacity:1;stroke:none"
       transform="matrix(1,0,0,-1,-12.086245,-74.323216)"><text
         sodipodi:linespacing="125%"
         id="text3074"
         y="-119.7523"
         x="23.375935"
         style="font-style:normal;font-weight:normal;font-size:32px;line-height:125%;font-family:Sans;letter-spacing:0px;word-spacing:0px;fill:#000000;fill-opacity:1;stroke:none"
         xml:space="preserve"><tspan
           style="font-style:normal;font-variant:normal;font-weight:300;font-stretch:normal;font-size:11.19999981px;font-family:'VAG Rounded Std';-inkscape-font-specification:'VAG Rounded Std Light'"
           y="-119.7523"
           x="23.375935"
           id="tspan3076"
           sodipodi:role="line">{{ .tag1 }}</tspan></text>
<text
         xml:space="preserve"
         style="font-style:normal;font-weight:normal;font-size:32px;line-height:125%;font-family:Sans;letter-spacing:0px;word-spacing:0px;fill:#000000;fill-opacity:1;stroke:none"
         x="23.375935"
         y="-107.01269"
         id="text3078"
         sodipodi:linespacing="125%"><tspan
           sodipodi:role="line"
           id="tspan3080"
           x="23.375935"
           y="-107.01269"
           style="font-style:normal;font-variant:normal;font-weight:300;font-stretch:normal;font-size:11.19999981px;font-family:'VAG Rounded Std';-inkscape-font-specification:'VAG Rounded Std Light'">{{ .tag2 }}</tspan></text>
<text
         sodipodi:linespacing="125%"
         id="text3082"
         y="-94.273079"
         x="23.375935"
         style="font-style:normal;font-weight:normal;font-size:32px;line-height:125%;font-family:Sans;letter-spacing:0px;word-spacing:0px;fill:#000000;fill-opacity:1;stroke:none"
         xml:space="preserve"><tspan
           style="font-style:normal;font-variant:normal;font-weight:300;font-stretch:normal;font-size:11.19999981px;font-family:'VAG Rounded Std';-inkscape-font-specification:'VAG Rounded Std Light'"
           y="-94.273079"
           x="23.375935"
           id="tspan3084"
           sodipodi:role="line">{{ .tag3 }}</tspan></text>
</g><text
       y="-65.919098"
       x="11.091689"
       id="text3004"
       transform="scale(1,-1)"
       style="font-style:normal;font-variant:normal;font-weight:300;font-stretch:normal;font-family:'VAG Rounded Std';-inkscape-font-specification:'VAG Rounded Std Light'"><tspan
         y="-65.919098"
         x="11.091689"
         id="tspan3006"
         sodipodi:role="line"
         style="font-style:normal;font-variant:normal;font-weight:900;font-stretch:normal;font-size:15px;font-family:'VAG Rounded Std';-inkscape-font-specification:'VAG Rounded Std Heavy';writing-mode:lr-tb;fill:#231f20;fill-opacity:1;fill-rule:nonzero;stroke:none">{{ .twitter }}</tspan></text>
<g
       style="fill:#646464;fill-opacity:1"
       id="g3383"
       transform="matrix(1.220565,0,0,1.220565,169.9643,-124.21859)"><g
         id="text3068"
         style="font-style:normal;font-variant:normal;font-weight:900;font-stretch:normal;font-size:32px;line-height:125%;font-family:'VAG Rounded Std';-inkscape-font-specification:'VAG Rounded Std Heavy';letter-spacing:0px;word-spacing:0px;fill:#646464;fill-opacity:1;stroke:none"
         transform="scale(1,-1)"><path
           id="path3375"
           style="font-style:normal;font-variant:normal;font-weight:900;font-stretch:normal;font-size:11.19999981px;font-family:'VAG Rounded Std';-inkscape-font-specification:'VAG Rounded Std Heavy';fill:#646464;fill-opacity:1"
           d="m -6.2835034,-111.99843 c 0.2128,0.8736 0.4032,1.3552 1.2768,1.3552 0.6943999,0 1.0751999,-0.3472 1.2879999,-0.9968 l 1.1648,-3.6512 0.0224,0 1.1648,3.6512 c 0.2128,0.6496 0.59359999,0.9968 1.28799998,0.9968 0.87359998,0 1.06399998,-0.4816 1.27680002,-1.3552 l 1.2095999,-4.9392 c 0.056,-0.2352 0.1792,-0.6272 0.1792,-0.9296 0,-0.4816 -0.3584,-0.8848 -0.9072,-0.8848 -0.5935999,0 -0.83999994,0.3584 -0.94079994,0.8064 l -0.92959998,4.3008 -0.0224,0 -1.31039998,-4.1776 c -0.224,-0.6944 -0.5376,-0.9296 -1.0192,-0.9296 -0.4816,0 -0.7952,0.2352 -1.0192,0.9296 l -1.3103999,4.1776 -0.0224,0 -0.9296,-4.3008 c -0.1008,-0.448 -0.3472,-0.8064 -0.9408,-0.8064 -0.5488,0 -0.9072,0.4032 -0.9072,0.8848 0,0.3024 0.1232,0.6944 0.1792,0.9296 l 1.2096,4.9392 z"
           inkscape:connector-curvature="0" /><path
           id="path3377"
           style="font-style:normal;font-variant:normal;font-weight:900;font-stretch:normal;font-size:11.19999981px;font-family:'VAG Rounded Std';-inkscape-font-specification:'VAG Rounded Std Heavy';fill:#646464;fill-opacity:1"
           d="m 2.9811716,-111.61763 c 0,0.5824 0.4368,0.9072 0.9072,0.9072 l 2.8447999,0 c 0.5712,0 0.9072,-0.336 0.9072,-0.84 0,-0.5264 -0.336,-0.84 -0.9072,-0.84 l -1.9375999,0 0,-1.4896 1.7135999,0 c 0.5712,0 0.9072,-0.3248 0.9072,-0.84 0,-0.5152 -0.336,-0.84 -0.9072,-0.84 l -1.7135999,0 0,-1.4448 1.8703999,0 c 0.5712,0 0.9072,-0.3136 0.9072,-0.84 0,-0.504 -0.336,-0.84 -0.9072,-0.84 l -2.7775999,0 c -0.4704,0 -0.9072,0.3248 -0.9072,0.9072 l 0,6.16 z"
           inkscape:connector-curvature="0" /><path
           id="path3379"
           style="font-style:normal;font-variant:normal;font-weight:900;font-stretch:normal;font-size:11.19999981px;font-family:'VAG Rounded Std';-inkscape-font-specification:'VAG Rounded Std Heavy';fill:#646464;fill-opacity:1"
           d="m 8.2215464,-113.51043 c -0.1456,0.8288 -0.3024,1.736 -0.3024,2.0048 0,0.4032 0.3136,0.8624 0.8512,0.8624 0.8176,0 0.9632,-0.5824 1.0528,-1.1984 l 0.5375996,-3.5392 0.0224,0 1.2208,3.92 c 0.1792,0.5824 0.448,0.8176 0.9968,0.8176 0.5488,0 0.8176,-0.2352 0.9968,-0.8176 l 1.2208,-3.92 0.0224,0 0.5376,3.5392 c 0.0896,0.616 0.2352,1.1984 1.0528,1.1984 0.5376,0 0.8512,-0.4592 0.8512,-0.8624 0,-0.2688 -0.1568,-1.176 -0.3024,-2.0048 l -0.7168,-4.0992 c -0.168,-0.952 -0.7392,-1.1424 -1.1984,-1.1424 -0.9072,0 -1.1088,0.5264 -1.568,1.96 l -0.8848,2.744 -0.0224,0 -0.8848,-2.744 c -0.4592,-1.4336 -0.6608,-1.96 -1.568,-1.96 -0.4591996,0 -1.0303996,0.1904 -1.1983996,1.1424 l -0.7168,4.0992 z"
           inkscape:connector-curvature="0" /><path
           id="path3381"
           style="font-style:normal;font-variant:normal;font-weight:900;font-stretch:normal;font-size:11.19999981px;font-family:'VAG Rounded Std';-inkscape-font-specification:'VAG Rounded Std Heavy';fill:#646464;fill-opacity:1"
           d="m 21.618322,-118.86403 c -2.3632,0 -3.92,1.6352 -3.92,4.1664 0,2.5312 1.5568,4.1664 3.92,4.1664 2.3632,0 3.92,-1.6352 3.92,-4.1664 0,-2.5312 -1.5568,-4.1664 -3.92,-4.1664 z m 0,1.68 c 1.4,0 1.9712,1.2208 1.9712,2.4864 0,1.2656 -0.5712,2.4864 -1.9712,2.4864 -1.4,0 -1.9712,-1.2208 -1.9712,-2.4864 0,-1.2656 0.5712,-2.4864 1.9712,-2.4864 z"
           inkscape:connector-curvature="0" /></g><g
         id="text3363"
         style="font-style:normal;font-variant:normal;font-weight:900;font-stretch:normal;font-size:32px;line-height:125%;font-family:'VAG Rounded Std';-inkscape-font-specification:'VAG Rounded Std Heavy';letter-spacing:0px;word-spacing:0px;fill:#646464;fill-opacity:1;stroke:none"
         transform="scale(1,-1)"><path
           id="path3372"
           style="font-style:normal;font-variant:normal;font-weight:900;font-stretch:normal;font-size:11.19999981px;font-family:'VAG Rounded Std';-inkscape-font-specification:'VAG Rounded Std Heavy';fill:#646464;fill-opacity:1"
           d="m 34.884935,-111.64003 c 0,0.6384 0.3808,0.9632 0.9072,0.9632 0.5264,0 0.9072,-0.3248 0.9072,-0.9632 l 0,-2.296 1.6352,0 c 0.5712,0 0.9072,-0.3248 0.9072,-0.84 0,-0.5152 -0.336,-0.84 -0.9072,-0.84 l -1.6352,0 0,-1.4224 1.8704,0 c 0.5712,0 0.9072,-0.3136 0.9072,-0.84 0,-0.504 -0.336,-0.84 -0.9072,-0.84 l -2.7776,0 c -0.4704,0 -0.9072,0.3248 -0.9072,0.9072 l 0,6.1712 z"
           inkscape:connector-curvature="0" /></g><path
         style="fill:#646464;fill-opacity:1"
         id="path3"
         d="m 33.151162,118.67836 c -1.078436,0.58035 -2.48893,0.0345 -2.987926,-1.21697 -0.498996,1.25144 -1.909489,1.79802 -2.987925,1.21697 -1.148597,-0.61974 -1.697795,-2.20251 -0.790531,-4.06948 0.644159,-1.32882 1.786102,-2.32984 3.778456,-4.12435 1.992354,1.79451 3.134297,2.79623 3.778455,4.12435 0.907266,1.86697 0.358068,3.44974 -0.790529,4.06948 z"
         inkscape:connector-curvature="0" /></g></g></svg>